<?xml version="1.0" encoding="UTF-8"?>
<svg id="Layer_1" data-name="Layer 1" xmlns="http://www.w3.org/2000/svg" version="1.1" viewBox="0 0 304.881 91.465">
  <defs>
    <style>
      .cls-1 {
        fill: #7c5200;
      }

      .cls-1, .cls-2, .cls-3, .cls-4, .cls-5, .cls-6, .cls-7, .cls-8, .cls-9 {
        stroke-width: 0px;
      }

      .cls-2 {
        fill: #ffbc5c;
      }

      .cls-3 {
        fill: #452b00;
      }

      .cls-4 {
        fill: #b20404;
      }

      .cls-5 {
        fill: #ffaf2e;
      }

      .cls-6 {
        fill: red;
      }

      .cls-7 {
        fill: #776235;
      }

      .cls-8 {
        fill: #7c5428;
      }

      .cls-9 {
        fill: #720303;
      }
    </style>
  </defs>
  <path class="cls-3" d="M53.622,91.465C-3.392,91.465.04,53.849.04,53.849h107.164s3.431,37.616-53.582,37.616Z"/>
  <ellipse class="cls-2" cx="53.622" cy="53.849" rx="53.622" ry="11.083"/>
  <ellipse class="cls-1" cx="53.622" cy="53.849" rx="51.617" ry="10.173"/>
  <path class="cls-3" d="M66.81,63.688c.05-.013.113-.014.139-.014.05-.007.106-.007.12-.007.005,0,.023,0,.046,0,.047-.006.096-.007.109-.007.005,0,.024,0,.048.001.036-.003.07-.004.08-.004.005,0,.025,0,.049.001.052-.009.111-.011.126-.011,0,0,.006,0,.007,0,.053-.01.117-.01.133-.01.005,0,.025,0,.05.001.042-.004.083-.004.095-.004.005,0,.028,0,.055.002.039-.004.078-.005.094-.005.049-.009.104-.01.119-.01,0,0,.005,0,.006,0,.053-.01.116-.01.132-.01.006,0,.032,0,.062.002.054-.015.128-.015.146-.015.007,0,.039,0,.074.003.035-.003.068-.003.079-.003.005,0,.027,0,.053.002.037-.008.076-.01.105-.011.02-.002.039-.003.055-.003.053-.016.131-.017.155-.017.055-.013.128-.013.146-.013.004,0,.018,0,.034,0,.055-.017.14-.016.159-.016.005,0,.024,0,.048.001.051-.008.108-.008.122-.008.005,0,.022,0,.045,0,.054-.011.122-.01.138-.01.003,0,.016,0,.026,0,.053-.01.118-.01.134-.01,0,0,.006,0,.008,0,.016-.003.031-.007.047-.008.027-.004.053-.005.08-.005h.003c.02,0,.04.003.06.004.049-.012.11-.014.133-.014.004,0,.008-.002.012-.003.055-.013.128-.013.146-.013,0,0,.006,0,.007,0,15.359-8.083,36.372-19.972,36.947-19.713-9.593-1.262-26.424,11.072-40.433,19.922Z"/>
  <path class="cls-8" d="M94.717,48.57c.012-.003.028-.005.035-.006.013-.003.026-.004.03-.005.001,0,.006,0,.012-.001.012-.002.024-.004.027-.004.001,0,.006,0,.012-.001.009-.002.017-.003.02-.003.001,0,.006,0,.012-.001.013-.003.028-.005.032-.005,0,0,.001,0,.002,0,.013-.003.029-.005.033-.005.001,0,.006,0,.013-.001.011-.002.021-.003.024-.003.001,0,.007,0,.014-.001.01-.002.019-.003.023-.003.012-.003.026-.005.03-.005,0,0,.001,0,.002,0,.013-.003.029-.005.033-.005.001,0,.008,0,.016-.001.013-.004.032-.006.036-.007.002,0,.01-.001.019-.002.009-.001.017-.002.02-.003.001,0,.007,0,.013-.001.009-.002.019-.004.026-.005.005,0,.01-.002.014-.002.013-.004.033-.006.039-.007.014-.004.032-.006.036-.006,0,0,.005,0,.008,0,.014-.004.035-.007.04-.007.001,0,.006,0,.012-.001.013-.003.027-.004.031-.005.001,0,.006,0,.011-.001.013-.003.03-.005.034-.006,0,0,.004,0,.007,0,.013-.003.029-.005.033-.005,0,0,.002,0,.002,0,.004,0,.008-.002.012-.003.007-.001.013-.002.02-.003h0c.005,0,.01,0,.015-.001.012-.003.027-.005.033-.006.001,0,.002,0,.003,0,.014-.004.032-.006.036-.006,0,0,.001,0,.002,0,3.766-1.695,8.908-4.142,9.055-4.118-2.421.082-6.509,2.477-9.928,4.251Z"/>
  <path class="cls-5" d="M49.043,59.331c1.027-8.646.746-17.6.492-26.278-.088-3.021-.381-5.932-2.225-8.447-2.55-3.477-4.408-5.12-4.815-9.722l.074,3.075c.17,21.43-.607,13.798,1.844,7.924,1.077-2.582.105-7.711.105-10.5,0-2.475-.002-4.95-.031-7.425-.009-.774-.355-2.403-.074-3.075-3.629,8.699-2.162,19.57-1.982,28.747.069,3.536.345,6.655,2.66,9.497,1.173,1.44,2.503,2.532,3.308,4.259.39.885.667,1.805.829,2.759.522-13.817.461-17.755-.184-11.813-.822,6.917.817,14.12,0,21h0Z"/>
  <path class="cls-5" d="M54.2,41.09c-.927-6.783-.355,11.23-.157,10.61.416-1.298.462-2.844.809-4.188.514-1.992,1.284-3.87,1.99-5.796,1.433-3.91,1.728-7.628,1.777-11.751.113-9.563,1.763-21.149-2.894-29.966.198.374-.073,3.011-.074,3.075-.029,2.474-.031,4.95-.031,7.425s.002,4.95.031,7.425c.009.775-.277,2.41.074,3.075,1.006,1.905,1.765,3.86,2.226,5.97.635,2.91.435,7.34.333-4.499-.097-11.375.259-7.535-.532-4.539-1.231,4.659-3.291,8.749-3.799,13.63-1.022,9.825-1.094,20.724.246,30.527-.936-6.847.942-14.111,0-21h0Z"/>
  <path class="cls-5" d="M61.417,58.412c.276-4.537.639-9.07,2.599-13.232,1.658-3.521,3.199-6.869,4.009-10.729,1.845-8.797.965-18.367.792-27.268-.077-3.987-.141,3.404-.144,3.767-.029,4.787-.055,9.579.038,14.366.624-15.324.536-20.089-.264-14.294-.067.544-.157,1.083-.27,1.62-.266,1.417-.601,2.822-1.022,4.201-.795,2.606-1.987,4.897-3.139,7.338-2.066,4.377-2.365,9.219-2.655,13.982-.383,6.292.357,15.305.056,20.25h0Z"/>
  <path class="cls-9" d="M61.818,79.008c-.898.674-7.146,5.363-8.195,6.15-1.101-.824-7.256-5.445-8.198-6.15-4.312-3.406,2.191-8.286,6.729-5.05,0,0,1.469,1.103,1.469,1.103l1.469-1.103c4.537-3.237,11.037,1.647,6.726,5.05Z"/>
  <path class="cls-4" d="M61.818,79.512c-.898.619-7.146,4.923-8.195,5.646-1.101-.756-7.256-4.998-8.198-5.646-4.312-3.127,2.191-7.606,6.729-4.636,0,0,1.469,1.012,1.469,1.012l1.469-1.012c4.537-2.972,11.037,1.512,6.726,4.636Z"/>
  <path class="cls-6" d="M61.818,80.055c-.898.559-7.146,4.449-8.195,5.103-1.101-.683-7.256-4.517-8.198-5.103-4.312-2.826,2.191-6.874,6.729-4.189,0,0,1.469.915,1.469.915l1.469-.915c4.537-2.686,11.037,1.366,6.726,4.189Z"/>
  <g>
    <path class="cls-6" d="M113.01,81.677v-1.289l1.887-.316v-14.625l-2.027-.316v-1.289h12.797l.234,4.043h-1.758l-.762-2.543-5.789-.129v6.762l4.102-.035.48-1.898h1.477v5.438h-1.477l-.48-1.934-4.102-.105v6.633l3.41.316v1.289h-7.992Z"/>
    <path class="cls-6" d="M138.838,81.958c-.492,0-.867-.09-1.125-.27s-.387-.516-.387-1.008v-.48c-.219.188-.479.385-.779.592s-.631.396-.99.568-.74.312-1.143.422-.814.164-1.236.164c-.727,0-1.352-.094-1.875-.281s-.953-.488-1.289-.902-.584-.949-.744-1.605-.24-1.457-.24-2.402v-6.715l-1.312-.504v-1.125l3.387-.375h.012l.527.328v8.25c0,.648.033,1.197.1,1.646s.189.814.369,1.096.424.484.732.609.705.188,1.189.188c.344,0,.666-.037.967-.111s.58-.164.838-.27.488-.221.691-.346.375-.238.516-.34v-9.047l-1.652-.504v-1.137l3.586-.363h.023l.656.328v11.977h1.418v1.172c-.273.086-.598.182-.973.287s-.797.158-1.266.158Z"/>
    <path class="cls-6" d="M142.881,81.677v-1.289l1.934-.199v-16.348l-1.934-.211v-1.113l3.938-.527h.023l.586.41v17.789l2.027.199v1.289h-6.574Z"/>
    <path class="cls-6" d="M150.955,81.677v-1.289l1.934-.199v-16.348l-1.934-.211v-1.113l3.938-.527h.023l.586.41v17.789l2.027.199v1.289h-6.574Z"/>
    <path class="cls-4" d="M167.127,81.677v-1.289l1.957-.328v-14.613l-1.875-.316v-1.289h6.562v1.289l-2.004.316v6.305h8.262v-6.305l-1.898-.316v-1.289h6.469v1.289l-1.875.316v14.625l1.875.316v1.289h-6.445v-1.289l1.875-.316v-6.797h-8.262v6.797l2.004.316v1.289h-6.645Z"/>
    <path class="cls-4" d="M192.826,81.947c-.992,0-1.861-.172-2.607-.516s-1.369-.824-1.869-1.441-.875-1.354-1.125-2.209-.375-1.795-.375-2.818c0-1.039.156-1.986.469-2.842s.748-1.59,1.307-2.203,1.221-1.088,1.986-1.424,1.602-.504,2.508-.504c1.477,0,2.621.4,3.434,1.201s1.254,1.986,1.324,3.557c.008.508.004.951-.012,1.33s-.055.713-.117,1.002h-8.109v.07c.031.891.16,1.652.387,2.285s.521,1.15.885,1.553.779.695,1.248.879.957.275,1.465.275c.336,0,.676-.031,1.02-.094s.674-.145.99-.246.605-.219.867-.352.479-.266.65-.398l.492,1.148c-.227.227-.514.445-.861.656s-.734.396-1.16.557-.877.289-1.354.387-.957.146-1.441.146ZM192.533,69.396c-.391,0-.754.068-1.09.205s-.631.369-.885.697-.461.766-.621,1.312-.26,1.234-.299,2.062h5.438c.016-.156.025-.32.029-.492s.006-.332.006-.48c0-.438-.047-.855-.141-1.254s-.242-.75-.445-1.055-.467-.547-.791-.727-.725-.27-1.201-.27Z"/>
    <path class="cls-4" d="M199.81,78.161c0-.562.105-1.064.316-1.506s.5-.83.867-1.166.799-.621,1.295-.855,1.031-.426,1.605-.574,1.172-.258,1.793-.328,1.236-.113,1.846-.129v-.621c0-.547-.039-1.01-.117-1.389s-.213-.688-.404-.926-.447-.41-.768-.516-.727-.158-1.219-.158c-.422,0-.844.039-1.266.117s-.826.174-1.213.287-.742.234-1.066.363-.596.248-.814.357h-.012l-.527-1.125c.148-.141.41-.32.785-.539s.818-.43,1.33-.633,1.062-.379,1.652-.527,1.178-.223,1.764-.223c.82,0,1.514.084,2.08.252s1.025.438,1.377.809.604.852.756,1.441.229,1.311.229,2.162v7.641h1.453v1.137c-.148.039-.326.084-.533.135s-.424.098-.65.141-.457.08-.691.111-.457.047-.668.047c-.219,0-.408-.01-.568-.029s-.291-.07-.393-.152-.178-.205-.229-.369-.076-.387-.076-.668v-.434c-.102.094-.268.232-.498.416s-.514.367-.85.551-.719.344-1.148.48-.891.205-1.383.205c-.539,0-1.053-.072-1.541-.217s-.918-.369-1.289-.674-.668-.697-.891-1.178-.334-1.053-.334-1.717ZM204.873,80.154c.164,0,.359-.021.586-.064s.461-.104.703-.182.482-.176.721-.293.455-.246.65-.387v-4.312c-.938,0-1.721.082-2.35.246s-1.131.381-1.506.65-.641.576-.797.92-.234.703-.234,1.078c0,.43.057.793.17,1.09s.27.539.469.727.436.322.709.404.566.123.879.123Z"/>
    <path class="cls-4" d="M213.299,81.677v-1.289l1.91-.199v-9.75l-1.641-.516v-1.406l3.305-.48h.059l.551.469v.703l-.012,1.465h.023c.062-.102.207-.299.434-.592s.527-.594.902-.902.818-.584,1.33-.826,1.076-.363,1.693-.363c.18,0,.328.01.445.029s.219.045.305.076v2.871c-.031-.023-.09-.049-.176-.076s-.189-.053-.311-.076-.254-.045-.398-.064-.295-.029-.451-.029c-.875,0-1.584.088-2.127.264s-.982.385-1.318.627v8.578l3.188.223v1.266h-7.711Z"/>
    <path class="cls-4" d="M225.861,79.181v-9.141h-1.699v-1.102c.242-.078.482-.16.721-.246s.412-.164.521-.234c.258-.18.477-.473.656-.879.062-.141.141-.326.234-.557s.186-.467.275-.709.172-.473.246-.691.127-.391.158-.516h1.5v3.234h3.926v1.699h-3.926v7.008c0,.695.01,1.238.029,1.629s.074.68.164.867.225.303.404.346.426.064.738.064h.012c.227,0,.463-.016.709-.047s.486-.068.721-.111.449-.09.645-.141.352-.1.469-.146h.012l.398,1.148c-.188.141-.445.287-.773.439s-.686.291-1.072.416-.787.229-1.201.311-.805.123-1.172.123h-.023c-.414,0-.785-.047-1.113-.141s-.607-.248-.838-.463-.408-.5-.533-.855-.188-.791-.188-1.307Z"/>
    <path class="cls-4" d="M234.65,80.927v-3.07h1.664l.48,1.734c.07.125.191.248.363.369s.375.23.609.328.496.176.785.234.59.088.902.088c.484,0,.883-.053,1.195-.158s.559-.244.738-.416.303-.373.369-.604.1-.467.1-.709c0-.305-.068-.58-.205-.826s-.346-.48-.627-.703-.643-.441-1.084-.656-.967-.439-1.576-.674c-.633-.242-1.18-.5-1.641-.773s-.844-.58-1.148-.92-.529-.719-.674-1.137-.217-.893-.217-1.424c0-.539.123-1.025.369-1.459s.586-.807,1.02-1.119.945-.553,1.535-.721,1.229-.252,1.916-.252c.484,0,.93.029,1.336.088s.773.129,1.102.211.615.166.861.252.443.152.592.199v2.93l-1.559-.012-.516-1.512c-.102-.203-.322-.393-.662-.568s-.775-.264-1.307-.264c-.406-.008-.754.031-1.043.117s-.523.203-.703.352-.312.322-.398.521-.129.412-.129.639c0,.422.09.766.27,1.031s.416.492.709.68.627.352,1.002.492.758.297,1.148.469c.539.234,1.053.48,1.541.738s.92.553,1.295.885.674.719.896,1.16.334.963.334,1.564c0,.594-.115,1.133-.346,1.617s-.564.896-1.002,1.236-.971.602-1.6.785-1.338.275-2.127.275c-.422,0-.859-.035-1.312-.105s-.889-.156-1.307-.258-.797-.213-1.137-.334-.611-.229-.814-.322Z"/>
    <path class="cls-9" d="M262.189,81.947c-1.32,0-2.494-.223-3.521-.668s-1.893-1.072-2.596-1.881-1.238-1.779-1.605-2.912-.551-2.391-.551-3.773c0-1.328.227-2.545.68-3.65s1.074-2.061,1.863-2.865,1.713-1.43,2.771-1.875,2.193-.668,3.404-.668c.516,0,1.029.029,1.541.088s.992.129,1.441.211.857.166,1.225.252.66.148.879.188l-.211,4.137h-1.699l-.68-2.707c-.203-.227-.551-.41-1.043-.551s-1.172-.211-2.039-.211c-.727,0-1.395.16-2.004.48s-1.135.791-1.576,1.412-.785,1.387-1.031,2.297-.369,1.959-.369,3.146c0,1.023.098,2.023.293,3s.502,1.846.92,2.607.957,1.375,1.617,1.84,1.455.697,2.385.697c.43,0,.803-.021,1.119-.064s.592-.102.826-.176.434-.168.598-.281.309-.24.434-.381l1.09-2.309,1.512.234-.574,3.457c-.32.016-.631.072-.932.17s-.641.203-1.02.316-.818.215-1.318.305-1.109.135-1.828.135Z"/>
    <path class="cls-9" d="M269.736,78.161c0-.562.105-1.064.316-1.506s.5-.83.867-1.166.799-.621,1.295-.855,1.031-.426,1.605-.574,1.172-.258,1.793-.328,1.236-.113,1.846-.129v-.621c0-.547-.039-1.01-.117-1.389s-.213-.688-.404-.926-.447-.41-.768-.516-.727-.158-1.219-.158c-.422,0-.844.039-1.266.117s-.826.174-1.213.287-.742.234-1.066.363-.596.248-.814.357h-.012l-.527-1.125c.148-.141.41-.32.785-.539s.818-.43,1.33-.633,1.062-.379,1.652-.527,1.178-.223,1.764-.223c.82,0,1.514.084,2.08.252s1.025.438,1.377.809.604.852.756,1.441.229,1.311.229,2.162v7.641h1.453v1.137c-.148.039-.326.084-.533.135s-.424.098-.65.141-.457.08-.691.111-.457.047-.668.047c-.219,0-.408-.01-.568-.029s-.291-.07-.393-.152-.178-.205-.229-.369-.076-.387-.076-.668v-.434c-.102.094-.268.232-.498.416s-.514.367-.85.551-.719.344-1.148.48-.891.205-1.383.205c-.539,0-1.053-.072-1.541-.217s-.918-.369-1.289-.674-.668-.697-.891-1.178-.334-1.053-.334-1.717ZM274.799,80.154c.164,0,.359-.021.586-.064s.461-.104.703-.182.482-.176.721-.293.455-.246.65-.387v-4.312c-.938,0-1.721.082-2.35.246s-1.131.381-1.506.65-.641.576-.797.92-.234.703-.234,1.078c0,.43.057.793.17,1.09s.27.539.469.727.436.322.709.404.566.123.879.123Z"/>
    <path class="cls-9" d="M283.306,81.677v-1.289l1.969-.223v-10.066h-2.262v-1.16l2.262-.562v-1.113c0-.766.164-1.48.492-2.145s.754-1.238,1.277-1.723,1.115-.865,1.775-1.143,1.322-.416,1.986-.416c.391,0,.684.02.879.059s.363.082.504.129v2.637c-.07-.055-.174-.119-.311-.193s-.303-.145-.498-.211-.41-.123-.645-.17-.484-.07-.75-.07c-.328,0-.621.027-.879.082s-.479.164-.662.328-.324.393-.422.686-.146.674-.146,1.143l.012,2.121h3.188v1.723h-3.188v10.078l2.508.211v1.289h-7.09Z"/>
    <path class="cls-9" d="M298.881,81.947c-.992,0-1.861-.172-2.607-.516s-1.369-.824-1.869-1.441-.875-1.354-1.125-2.209-.375-1.795-.375-2.818c0-1.039.156-1.986.469-2.842s.748-1.59,1.307-2.203,1.221-1.088,1.986-1.424,1.602-.504,2.508-.504c1.477,0,2.621.4,3.434,1.201s1.254,1.986,1.324,3.557c.008.508.004.951-.012,1.33s-.055.713-.117,1.002h-8.109v.07c.031.891.16,1.652.387,2.285s.521,1.15.885,1.553.779.695,1.248.879.957.275,1.465.275c.336,0,.676-.031,1.02-.094s.674-.145.99-.246.605-.219.867-.352.479-.266.65-.398l.492,1.148c-.227.227-.514.445-.861.656s-.734.396-1.16.557-.877.289-1.354.387-.957.146-1.441.146ZM298.588,69.396c-.391,0-.754.068-1.09.205s-.631.369-.885.697-.461.766-.621,1.312-.26,1.234-.299,2.062h5.438c.016-.156.025-.32.029-.492s.006-.332.006-.48c0-.438-.047-.855-.141-1.254s-.242-.75-.445-1.055-.467-.547-.791-.727-.725-.27-1.201-.27Z"/>
  </g>
  <path class="cls-7" d="M105.025,59.418c-1.028.915-2.38,1.47-3.634,2.008-1.3.558-2.636,1.032-3.997,1.418-2.666.755-5.415,1.17-8.184,1.252-.187.006-.549.034-.683.183-.09.1-.188.197.051.19,3.081-.091,6.143-.559,9.104-1.418,1.449-.421,2.872-.928,4.259-1.523,1.364-.586,2.835-1.2,3.954-2.197.164-.146-.148-.139-.223-.138-.199.004-.495.089-.648.225h0Z"/>
  <path class="cls-7" d="M103.031,63.788c-2.128,1.315-4.471,2.209-6.939,2.621-.096.016-.57.116-.569.252,0,.153.284.089.381.072,2.779-.465,5.462-1.46,7.86-2.941.164-.102.115-.166-.05-.187-.205-.026-.51.076-.683.183h0Z"/>
  <path class="cls-7" d="M102.283,67.256c-1.245.788-2.57,1.44-3.956,1.939-.083.03-.399.146-.288.275.104.12.517-.016.622-.054,1.527-.55,2.991-1.263,4.362-2.131.154-.097.122-.203-.057-.212-.224-.012-.493.063-.683.183h0Z"/>
  <path class="cls-7" d="M8.635,74.205c4.941,6.462,12.292,11.027,20.375,12.211.217.032.532.005.683-.183.113-.141.134-.346-.102-.381-7.979-1.169-15.186-5.662-20.062-12.04-.22-.287-1.15.057-.893.393h0Z"/>
</svg>