<?xml version="1.0" encoding="UTF-8"?>
<svg id="Layer_1" data-name="Layer 1" xmlns="http://www.w3.org/2000/svg" version="1.1" viewBox="0 0 107.2 91.5">
  <defs>
    <style>
      .cls-1 {
        fill: #7c5200;
      }

      .cls-1, .cls-2, .cls-3, .cls-4, .cls-5, .cls-6, .cls-7, .cls-8, .cls-9 {
        stroke-width: 0px;
      }

      .cls-2 {
        fill: #ffbc5c;
      }

      .cls-3 {
        fill: #452b00;
      }

      .cls-4 {
        fill: #b20404;
      }

      .cls-5 {
        fill: #ffaf2e;
      }

      .cls-6 {
        fill: red;
      }

      .cls-7 {
        fill: #776235;
      }

      .cls-8 {
        fill: #7c5428;
      }

      .cls-9 {
        fill: #720303;
      }
    </style>
  </defs>
  <path class="cls-3" d="M53.6,91.5C-3.4,91.5,0,53.8,0,53.8h107.2s3.4,37.6-53.6,37.6Z"/>
  <ellipse class="cls-2" cx="53.6" cy="53.8" rx="53.6" ry="11.1"/>
  <ellipse class="cls-1" cx="53.6" cy="53.8" rx="51.6" ry="10.2"/>
  <path class="cls-3" d="M66.8,63.7c0,0,.1,0,.1,0,0,0,.1,0,.1,0s0,0,0,0c0,0,0,0,.1,0s0,0,0,0c0,0,0,0,0,0s0,0,0,0c0,0,.1,0,.1,0s0,0,0,0c0,0,.1,0,.1,0s0,0,0,0c0,0,0,0,0,0s0,0,0,0c0,0,0,0,0,0,0,0,.1,0,.1,0s0,0,0,0c0,0,.1,0,.1,0s0,0,0,0c0,0,.1,0,.1,0s0,0,0,0c0,0,0,0,0,0s0,0,0,0c0,0,0,0,.1,0,0,0,0,0,0,0,0,0,.1,0,.2,0,0,0,.1,0,.1,0s0,0,0,0c0,0,.1,0,.2,0s0,0,0,0c0,0,.1,0,.1,0s0,0,0,0c0,0,.1,0,.1,0s0,0,0,0c0,0,.1,0,.1,0s0,0,0,0c0,0,0,0,0,0,0,0,0,0,0,0h0s0,0,0,0c0,0,.1,0,.1,0,0,0,0,0,0,0,0,0,.1,0,.1,0s0,0,0,0c15.4-8.1,36.4-20,36.9-19.7-9.6-1.3-26.4,11.1-40.4,19.9Z"/>
  <path class="cls-8" d="M94.7,48.6s0,0,0,0c0,0,0,0,0,0s0,0,0,0c0,0,0,0,0,0s0,0,0,0c0,0,0,0,0,0s0,0,0,0c0,0,0,0,0,0s0,0,0,0c0,0,0,0,0,0s0,0,0,0c0,0,0,0,0,0s0,0,0,0c0,0,0,0,0,0,0,0,0,0,0,0s0,0,0,0c0,0,0,0,0,0s0,0,0,0c0,0,0,0,0,0s0,0,0,0c0,0,0,0,0,0s0,0,0,0c0,0,0,0,0,0,0,0,0,0,0,0,0,0,0,0,0,0,0,0,0,0,0,0s0,0,0,0c0,0,0,0,0,0s0,0,0,0c0,0,0,0,0,0s0,0,0,0c0,0,0,0,0,0s0,0,0,0c0,0,0,0,0,0s0,0,0,0c0,0,0,0,0,0,0,0,0,0,0,0h0s0,0,0,0c0,0,0,0,0,0,0,0,0,0,0,0,0,0,0,0,0,0s0,0,0,0c3.8-1.7,8.9-4.1,9.1-4.1-2.4,0-6.5,2.5-9.9,4.3Z"/>
  <path class="cls-5" d="M49,59.3c1-8.6.7-17.6.5-26.3s-.4-5.9-2.2-8.4-4.4-5.1-4.8-9.7v3.1c.2,21.4-.5,13.8,1.9,7.9s.1-7.7.1-10.5,0-4.9,0-7.4-.4-2.4,0-3.1c-3.6,8.7-2.2,19.6-2,28.7s.3,6.7,2.7,9.5,2.5,2.5,3.3,4.3c.4.9.7,1.8.8,2.8.5-13.8.5-17.8-.2-11.8-.8,6.9.8,14.1,0,21h0Z"/>
  <path class="cls-5" d="M54.2,41.1c-.9-6.8-.4,11.2-.2,10.6.4-1.3.5-2.8.8-4.2.5-2,1.3-3.9,2-5.8,1.4-3.9,1.7-7.6,1.8-11.8.1-9.6,1.8-21.1-2.9-30,.2.4,0,3,0,3.1,0,2.5,0,5,0,7.4s0,4.9,0,7.4-.3,2.4,0,3.1c1,1.9,1.8,3.9,2.2,6s.4,7.3.3-4.5.3-7.5-.5-4.5c-1.2,4.7-3.3,8.7-3.8,13.6-1,9.8-1.1,20.7.2,30.5-.9-6.8.9-14.1,0-21h0Z"/>
  <path class="cls-5" d="M61.4,58.4c.3-4.5.6-9.1,2.6-13.2s3.2-6.9,4-10.7c1.8-8.8,1-18.4.8-27.3,0-4-.1,3.4-.1,3.8,0,4.8,0,9.6,0,14.4.6-15.3.5-20.1-.3-14.3,0,.5-.2,1.1-.3,1.6-.3,1.4-.6,2.8-1,4.2-.8,2.6-2,4.9-3.1,7.3-2.1,4.4-2.4,9.2-2.7,14s.4,15.3,0,20.2h0Z"/>
  <path class="cls-9" d="M61.8,79c-.9.7-7.1,5.4-8.2,6.2-1.1-.8-7.3-5.4-8.2-6.2-4.3-3.4,2.2-8.3,6.7-5,0,0,1.5,1.1,1.5,1.1l1.5-1.1c4.5-3.2,11,1.6,6.7,5Z"/>
  <path class="cls-4" d="M61.8,79.5c-.9.6-7.1,4.9-8.2,5.6-1.1-.8-7.3-5-8.2-5.6-4.3-3.1,2.2-7.6,6.7-4.6,0,0,1.5,1,1.5,1l1.5-1c4.5-3,11,1.5,6.7,4.6Z"/>
  <path class="cls-6" d="M61.8,80.1c-.9.6-7.1,4.4-8.2,5.1-1.1-.7-7.3-4.5-8.2-5.1-4.3-2.8,2.2-6.9,6.7-4.2,0,0,1.5.9,1.5.9l1.5-.9c4.5-2.7,11,1.4,6.7,4.2Z"/>
  <path class="cls-7" d="M105,59.4c-1,.9-2.4,1.5-3.6,2s-2.6,1-4,1.4c-2.7.8-5.4,1.2-8.2,1.3s-.5,0-.7.2-.2.2,0,.2c3.1,0,6.1-.6,9.1-1.4s2.9-.9,4.3-1.5,2.8-1.2,4-2.2-.1-.1-.2-.1c-.2,0-.5,0-.6.2h0Z"/>
  <path class="cls-7" d="M103,63.8c-2.1,1.3-4.5,2.2-6.9,2.6s-.6.1-.6.3.3,0,.4,0c2.8-.5,5.5-1.5,7.9-2.9s.1-.2,0-.2-.5,0-.7.2h0Z"/>
  <path class="cls-7" d="M102.3,67.3c-1.2.8-2.6,1.4-4,1.9s-.4.1-.3.3.5,0,.6,0c1.5-.6,3-1.3,4.4-2.1s.1-.2,0-.2-.5,0-.7.2h0Z"/>
  <path class="cls-7" d="M8.6,74.2c4.9,6.5,12.3,11,20.4,12.2s.5,0,.7-.2.1-.3-.1-.4c-8-1.2-15.2-5.7-20.1-12s-1.2,0-.9.4h0Z"/>
</svg>